PathFileType   4   (X/Y/Z)
DataRate	CameraRate	NumFrames	NumMarkers	Units	OrigDataRate	OrigDataStartFrame	OrigNumFrames
120.0	120.0	4	37	mm	120.0	101	161
Frame#	Time	midhip	hip_r	hip_l	knee_r	knee_l	ankle_r	ankle_l	midasis	asis_r	asis_l	psis_r	psis_l	epicondLat_r	epicondLat_l	epicondMed_r	epicondMed_l	malleolusLat_r	malleolusLat_l	malleolusMedv_r	malleolusMedv_l	neck	subclavicle_r	subclavicle_l	sternalnotch	xyphoidprocess	thighwand_r	thighwand_l	upperleg1_r	upperleg1_l	upperleg2_r	upperleg2_l	shankwand_r	shankwand_l	lowerleg1_r	lowerleg1_l	toe_r	toe_l
 	 	X1	Y1	Z1	X2	Y2	Z2	X3	Y3	Z3	X4	Y4	Z4	X5	Y5	Z5	X6	Y6	Z6	X7	Y7	Z7	X8	Y8	Z8	X9	Y9	Z9	X10	Y10	Z10	X11	Y11	Z11	X12	Y12	Z12	X13	Y13	Z13	X14	Y14	Z14	X15	Y15	Z15	X16	Y16	Z16	X17	Y17	Z17	X18	Y18	Z18	X19	Y19	Z19	X20	Y20	Z20	X21	Y21	Z21	X22	Y22	Z22	X23	Y23	Z23	X24	Y24	Z24	X25	Y25	Z25	X26	Y26	Z26	X27	Y27	Z27	X28	Y28	Z28	X29	Y29	Z29	X30	Y30	Z30	X31	Y31	Z31	X32	Y32	Z32	X33	Y33	Z33	X34	Y34	Z34	X35	Y35	Z35	X36	Y36	Z36	X37	Y37	Z37

	101	1.10833	1921.407	849.560	-228.556	1926.228	831.119	-169.002	1908.255	827.015	-285.018	1963.920	459.410	-191.132	1880.548	462.018	-325.388	1919.055	62.289	-188.884	1617.149	148.108	-335.247	1978.336	907.929	-233.231	1985.254	910.469	-133.089	1971.418	905.389	-333.373	1824.371	939.717	-194.161	1820.645	939.349	-248.893	1986.261	458.684	-140.879	1887.243	467.462	-379.201	1939.292	454.829	-232.203	1874.643	446.186	-276.376	1922.133	62.159	-150.507	1617.745	148.816	-373.736	1928.913	78.011	-221.540	1636.304	159.222	-311.318	1865.085	1348.211	-217.767	1965.246	1276.305	-170.792	1964.245	1275.370	-278.513	1949.657	1286.715	-229.793	2004.523	1120.029	-227.801	2077.640	644.712	-216.045	2029.373	613.920	-298.270	2014.683	683.518	-146.252	1961.810	666.821	-351.143	2015.491	598.560	-149.528	1953.879	578.856	-353.112	1954.253	181.180	-82.533	1665.304	273.618	-435.941	1944.561	189.593	-122.807	1677.336	269.662	-395.140	2037.869	39.569	-197.302	1691.889	58.999	-323.166
	102	1.11667	1924.886	848.870	-228.461	1930.618	831.351	-168.883	1912.625	827.389	-284.901	1965.755	459.386	-190.922	1889.027	461.970	-326.209	1919.144	62.344	-188.938	1626.213	148.009	-335.192	1982.696	908.255	-233.024	1989.633	910.670	-132.864	1975.759	905.840	-333.185	1828.759	939.973	-194.062	1824.999	939.619	-248.778	1987.904	458.496	-140.586	1895.590	467.629	-380.016	1940.369	455.688	-232.333	1882.865	446.298	-276.367	1922.150	62.183	-150.556	1626.655	148.740	-373.682	1928.938	78.081	-221.573	1645.769	158.916	-311.328	1869.716	1348.535	-217.281	1970.029	1276.565	-170.600	1968.607	1275.774	-278.305	1954.209	1287.034	-229.560	2009.056	1120.360	-227.965	2080.747	643.671	-215.359	2036.292	615.341	-298.889	2017.989	683.173	-145.865	1968.109	667.667	-351.644	2017.828	598.729	-149.178	1960.813	579.335	-353.508	1954.673	181.069	-82.432	1673.783	273.533	-435.893	1944.898	189.550	-122.764	1686.019	269.429	-395.108	2037.922	39.530	-197.285	1702.873	59.818	-325.733
	103	1.12500	1929.846	849.863	-228.549	1934.918	831.551	-168.781	1916.914	827.739	-284.802	1967.574	459.351	-190.727	1897.590	461.938	-327.062	1919.222	62.374	-188.987	1635.659	147.705	-335.003	1986.975	908.549	-232.825	1993.923	910.833	-132.647	1980.027	906.265	-333.004	1833.060	940.203	-193.980	1829.273	939.871	-248.681	1989.533	458.305	-140.311	1903.998	467.815	-380.864	1941.615	456.339	-232.403	1892.123	445.742	-278.163	1922.158	62.185	-150.600	1635.932	148.450	-373.495	1928.943	78.120	-221.610	1655.898	158.480	-311.252	1874.203	1348.751	-216.718	1974.733	1276.810	-170.537	1972.887	1276.114	-278.201	1958.692	1287.322	-229.364	2013.630	1120.680	-228.175	2083.762	642.633	-214.695	2043.211	616.825	-299.580	2021.380	682.813	-145.513	1974.468	668.509	-352.170	2020.333	598.585	-148.886	1968.390	580.338	-354.491	1955.083	180.962	-82.349	1682.490	273.225	-435.721	1945.040	189.472	-122.796	1694.994	268.986	-394.965	2037.975	39.493	-197.271	1714.324	60.514	-328.405
	104	1.13333	1934.081	850.123	-228.618	1939.133	831.716	-168.698	1921.121	828.063	-284.723	1969.366	459.298	-190.546	1906.230	461.926	-327.945	1919.293	62.390	-189.026	1645.498	147.187	-334.700	1991.176	908.809	-232.639	1998.131	910.955	-132.445	1984.220	906.663	-332.833	1837.273	940.408	-193.911	1833.474	940.101	-248.599	1991.150	458.105	-140.058	1912.465	468.023	-381.743	1943.496	456.409	-232.711	1901.450	445.079	-280.598	1922.164	62.175	-150.634	1645.580	147.945	-373.192	1928.944	78.138	-221.640	1666.117	157.386	-311.015	1878.698	1349.023	-216.022	1979.370	1277.038	-170.510	1977.077	1276.397	-278.166	1963.108	1287.578	-229.196	2017.974	1120.924	-228.390	2086.698	641.607	-214.088	2050.121	618.367	-300.328	2024.586	682.271	-145.124	1980.948	669.257	-352.717	2022.971	597.809	-148.696	1976.118	581.500	-355.683	1955.493	180.860	-82.286	1691.404	272.715	-435.424	1945.515	189.389	-122.744	1704.397	268.383	-394.803	2038.030	39.457	-197.264	1726.200	61.095	-331.156
